<svg viewBox="0 0 32 32" xmlns="http://www.w3.org/2000/svg"><g style="fill:none;stroke:#000;stroke-width:2;stroke-linecap:round;stroke-linejoin:round;stroke-miterlimit:10"><path d="m18 29h-10c-2.2 0-4-1.8-4-4v-18c0-2.2 1.8-4 4-4h10c2.2 0 4 1.8 4 4v18c0 2.2-1.8 4-4 4z"/><path d="m22 6.4 5 3c1.9 1.1 2.5 3.6 1.3 5.5l-6.3 10.6"/><path d="m28 16 .5.7c1.3 1.8.8 4.3-1 5.6l-5.7 4"/><path d="m8 7v2"/><path d="m18 23v2"/><path d="m10.4 16.6c.5.5 1.3.5 1.8 0l.8-.8.8.8c.5.5 1.3.5 1.8 0s.5-1.4 0-1.9l-.8-.8-1.8-1.9-1.8 1.9-.8.8c-.5.5-.5 1.4 0 1.9z"/><path d="m12 20h2"/><path d="m13 17v2"/></g></svg>