<?xml version="1.0" encoding="UTF-8" standalone="no"?>
<svg
   xmlns:dc="http://purl.org/dc/elements/1.1/"
   xmlns:cc="http://creativecommons.org/ns#"
   xmlns:rdf="http://www.w3.org/1999/02/22-rdf-syntax-ns#"
   xmlns:svg="http://www.w3.org/2000/svg"
   xmlns="http://www.w3.org/2000/svg"
   xmlns:sodipodi="http://sodipodi.sourceforge.net/DTD/sodipodi-0.dtd"
   xmlns:inkscape="http://www.inkscape.org/namespaces/inkscape"
   version="1"
   viewBox="0 0 24 24"
   enable-background="new 0 0 24 24"
   id="svg3749"
   sodipodi:docname="polyline-car.svg"
   inkscape:version="0.92.5 (2060ec1f9f, 2020-04-08)">
  <metadata
     id="metadata3755">
    <rdf:RDF>
      <cc:Work
         rdf:about="">
        <dc:format>image/svg+xml</dc:format>
        <dc:type
           rdf:resource="http://purl.org/dc/dcmitype/StillImage" />
      </cc:Work>
    </rdf:RDF>
  </metadata>
  <defs
     id="defs3753" />
  <sodipodi:namedview
     pagecolor="#ffffff"
     bordercolor="#666666"
     borderopacity="1"
     objecttolerance="10"
     gridtolerance="10"
     guidetolerance="10"
     inkscape:pageopacity="0"
     inkscape:pageshadow="2"
     inkscape:window-width="1920"
     inkscape:window-height="1001"
     id="namedview3751"
     showgrid="false"
     inkscape:zoom="33.666667"
     inkscape:cx="12"
     inkscape:cy="10.811881"
     inkscape:window-x="-9"
     inkscape:window-y="-9"
     inkscape:window-maximized="1"
     inkscape:current-layer="svg3749" />
  <path
     d="m 5.5,19.5 c 0,1.1 0.9,2 2,2 h 7 c 0.729,0 1.38669,-0.403362 1.71875,-1.03125 0.09197,0.01309 0.185809,0.03125 0.28125,0.03125 1.1,0 2,-0.9 2,-2 0,-1.1 -0.9,-2 -2,-2 1.1,0 2,-0.9 2,-2 0,-1.1 -0.9,-2 -2,-2 v -2 c 1.1,0 2,-0.9 2,-2 0,-1.1 -0.9,-2 -2,-2 1.1,0 2,-0.9 2,-2 0,-1.1 -0.9,-2 -2,-2 -0.09544,0 -0.189277,0.018157 -0.28125,0.03125 C 15.886691,1.903362 15.229,1.5 14.5,1.5 h -7 c -1.1,0 -2,0.9 -2,2 z m 2,-0.5 v -3 c 0,-0.3 0.2,-0.5 0.5,-0.5 h 3 c 0.3,0 0.5,0.2 0.5,0.5 v 3 c 0,0.3 -0.2,0.5 -0.5,0.5 H 8 C 7.7,19.5 7.5,19.3 7.5,19 Z m 0,-6 V 10 C 7.5,9.7 7.7,9.5 8,9.5 h 3 c 0.3,0 0.5,0.2 0.5,0.5 v 3 c 0,0.3 -0.2,0.5 -0.5,0.5 H 8 C 7.7,13.5 7.5,13.3 7.5,13 Z m 0,-6 V 4 C 7.5,3.7 7.7,3.5 8,3.5 h 3 c 0.3,0 0.5,0.2 0.5,0.5 v 3 c 0,0.3 -0.2,0.5 -0.5,0.5 H 8 C 7.7,7.5 7.5,7.3 7.5,7 Z M 16,18.5 C 16,18.2 16.2,18 16.5,18 16.8,18 17,18.2 17,18.5 17,18.8 16.8,19 16.5,19 16.2,19 16,18.8 16,18.5 Z m 0,-4 C 16,14.2 16.2,14 16.5,14 16.8,14 17,14.2 17,14.5 17,14.8 16.8,15 16.5,15 16.2,15 16,14.8 16,14.5 Z m 0,-6 C 16,8.2 16.2,8 16.5,8 16.8,8 17,8.2 17,8.5 17,8.8 16.8,9 16.5,9 16.2,9 16,8.8 16,8.5 Z m 0,-4 C 16,4.2 16.2,4 16.5,4 16.8,4 17,4.2 17,4.5 17,4.8 16.8,5 16.5,5 16.2,5 16,4.8 16,4.5 Z"
     id="path3747"
     inkscape:connector-curvature="0" />
</svg>
