<?xml version="1.0" encoding="UTF-8" standalone="no"?>
<svg
   xmlns:dc="http://purl.org/dc/elements/1.1/"
   xmlns:cc="http://creativecommons.org/ns#"
   xmlns:rdf="http://www.w3.org/1999/02/22-rdf-syntax-ns#"
   xmlns:svg="http://www.w3.org/2000/svg"
   xmlns="http://www.w3.org/2000/svg"
   xmlns:sodipodi="http://sodipodi.sourceforge.net/DTD/sodipodi-0.dtd"
   xmlns:inkscape="http://www.inkscape.org/namespaces/inkscape"
   height="6.82666in"
   style="shape-rendering:geometricPrecision; text-rendering:geometricPrecision; image-rendering:optimizeQuality; fill-rule:evenodd; clip-rule:evenodd"
   viewBox="0 0 6.82666 6.82666"
   width="6.82666in"
   xml:space="preserve"
   version="1.1"
   id="svg74"
   sodipodi:docname="station-blue.svg"
   inkscape:version="0.92.5 (2060ec1f9f, 2020-04-08)"><metadata
     id="metadata78"><rdf:RDF><cc:Work
         rdf:about=""><dc:format>image/svg+xml</dc:format><dc:type
           rdf:resource="http://purl.org/dc/dcmitype/StillImage" /><dc:title></dc:title></cc:Work></rdf:RDF></metadata><sodipodi:namedview
     pagecolor="#ffffff"
     bordercolor="#666666"
     borderopacity="1"
     objecttolerance="10"
     gridtolerance="10"
     guidetolerance="10"
     inkscape:pageopacity="0"
     inkscape:pageshadow="2"
     inkscape:window-width="1920"
     inkscape:window-height="1001"
     id="namedview76"
     showgrid="false"
     inkscape:zoom="1.4404311"
     inkscape:cx="104.59762"
     inkscape:cy="318.54421"
     inkscape:window-x="-9"
     inkscape:window-y="-9"
     inkscape:window-maximized="1"
     inkscape:current-layer="Layer_x0020_1" /><defs
     id="defs4"><style
       type="text/css"
       id="style2">
   <![CDATA[
    .str0 {stroke:#373435;stroke-width:0.00694488;stroke-linecap:round;stroke-linejoin:round}
    .fil5 {fill:none}
    .fil1 {fill:#9D7A72}
    .fil3 {fill:#A1887F}
    .fil4 {fill:#EDEAE3}
    .fil2 {fill:#FFE156}
    .fil0 {fill:black;fill-rule:nonzero}
   ]]>
  </style></defs><g
     id="Layer_x0020_1"><g
       id="_172696464"><g
         id="g28"><g
           id="g15"><path
             class="fil0"
             d="M1.48411 5.31947l0.735909 0c0.0264094,0 0.0504528,0.0108307 0.0678976,0.0282677l0.000208661 0.000208661c0.017437,0.0174449 0.0282677,0.0414882 0.0282677,0.0678976l0 0.177323 0 0.0533346 -0.0533346 0 -0.821988 0 -0.0533346 0 0 -0.0533346 0 -0.177323c0,-0.0264094 0.0108307,-0.0504528 0.0282677,-0.0678976l0 -0.000208661c0.017437,-0.017437 0.0415472,-0.0282677 0.0681063,-0.0282677zm0.725614 0.106669l-0.715319 0 0 0.113693 0.715319 0 0 -0.113693z"
             id="_172698120" /><path
             class="fil0"
             d="M1.55331 5.09911l0.597524 0c0.0264094,0 0.0504528,0.0108307 0.0678976,0.0282677l0.000208661 0.000208661c0.017437,0.0174449 0.0282677,0.0414882 0.0282677,0.0678976l0 0.177323 0 0.0533346 -0.0533346 0 -0.683602 0 -0.0533346 0 0 -0.0533346 0 -0.177323c0,-0.0264094 0.0108307,-0.0504528 0.0282677,-0.0678976l0 -0.000208661c0.017437,-0.017437 0.0415472,-0.0282677 0.0681063,-0.0282677zm0.587228 0.106669l-0.576933 0 0 0.113693 0.576933 0 0 -0.113693z"
             id="_172698048" /><path
             class="fil0"
             d="M1.58465 3.49231l0.534843 0 0.0533346 0 0 0.0533346 0 1.6068 0 0.0533346 -0.0533346 0 -0.534843 0 -0.0533346 0 0 -0.0533346 0 -1.6068 0 -0.0533346 0.0533346 0zm0.481508 0.106669l-0.428173 0 0 1.50013 0.428173 0 0 -1.50013z"
             id="_172697976" /><path
             class="fil0"
             d="M1.56361 3.49231l0.576933 0 0 -0.113693 -0.576933 0 0 0.113693zm0.587228 0.106669l-0.597524 0c-0.0265591,0 -0.0506693,-0.0108307 -0.0681063,-0.0282677 -0.017437,-0.017437 -0.0282677,-0.0415472 -0.0282677,-0.0681063l0 -0.177323 0 -0.0533346 0.0533346 0 0.683602 0 0.0533346 0 0 0.0533346 0 0.177323c0,0.0265591 -0.0108307,0.0506693 -0.0282677,0.0681063l-0.000208661 0c-0.0174449,0.017437 -0.0414882,0.0282677 -0.0678976,0.0282677z"
             id="_172697904" /><path
             class="fil0"
             d="M1.49441 3.27194l0.715319 0 0 -0.113693 -0.715319 0 0 0.113693zm0.725614 0.106669l-0.735909 0c-0.0265591,0 -0.0506693,-0.0108307 -0.0681063,-0.0282677l0 -0.000208661c-0.017437,-0.0174449 -0.0282677,-0.0414882 -0.0282677,-0.0678976l0 -0.177323 0 -0.0533346 0.0533346 0 0.821988 0 0.0533346 0 0 0.0533346 0 0.177323c0,0.0264094 -0.0108307,0.0504528 -0.0282677,0.0678976l-0.000208661 0.000208661c-0.0174449,0.017437 -0.0414882,0.0282677 -0.0678976,0.0282677z"
             id="_172697832" /><g
             id="g13"><path
               class="fil0"
               d="M1.81147 3.78107c0,-0.0294528 -0.0238819,-0.0533346 -0.0533346,-0.0533346 -0.0294528,0 -0.0533346,0.0238819 -0.0533346,0.0533346l0 1.13594c0,0.0294528 0.0238819,0.0533346 0.0533346,0.0533346 0.0294528,0 0.0533346,-0.0238819 0.0533346,-0.0533346l0 -1.13594z"
               id="_172697712" /><path
               class="fil0"
               d="M1.99934 3.78107c0,-0.0294528 -0.0238819,-0.0533346 -0.0533346,-0.0533346 -0.0294528,0 -0.0533346,0.0238819 -0.0533346,0.0533346l0 1.13594c0,0.0294528 0.0238819,0.0533346 0.0533346,0.0533346 0.0294528,0 0.0533346,-0.0238819 0.0533346,-0.0533346l0 -1.13594z"
               id="_172697736" /></g></g><g
           id="g26"><path
             class="fil0"
             d="M4.60663 5.31947l0.735909 0c0.0265591,0 0.0506693,0.0108307 0.0681063,0.0282677l0 0.000208661c0.017437,0.0174449 0.0282677,0.0414882 0.0282677,0.0678976l0 0.177323 0 0.0533346 -0.0533346 0 -0.821988 0 -0.0533346 0 0 -0.0533346 0 -0.177323c0,-0.0264094 0.0108307,-0.0504528 0.0282677,-0.0678976l0.000208661 -0.000208661c0.0174449,-0.017437 0.0414882,-0.0282677 0.0678976,-0.0282677zm0.725614 0.106669l-0.715319 0 0 0.113693 0.715319 0 0 -0.113693z"
             id="_172697520" /><path
             class="fil0"
             d="M4.67583 5.09911l0.597524 0c0.0265591,0 0.0506693,0.0108307 0.0681063,0.0282677l0 0.000208661c0.017437,0.0174449 0.0282677,0.0414882 0.0282677,0.0678976l0 0.177323 0 0.0533346 -0.0533346 0 -0.683602 0 -0.0533346 0 0 -0.0533346 0 -0.177323c0,-0.0264094 0.0108307,-0.0504528 0.0282677,-0.0678976l0.000208661 -0.000208661c0.0174449,-0.017437 0.0414882,-0.0282677 0.0678976,-0.0282677zm0.587228 0.106669l-0.576933 0 0 0.113693 0.576933 0 0 -0.113693z"
             id="_172697448" /><path
             class="fil0"
             d="M4.70717 3.49231l0.534843 0 0.0533346 0 0 0.0533346 0 1.6068 0 0.0533346 -0.0533346 0 -0.534843 0 -0.0533346 0 0 -0.0533346 0 -1.6068 0 -0.0533346 0.0533346 0zm0.481508 0.106669l-0.428173 0 0 1.50013 0.428173 0 0 -1.50013z"
             id="_172697376" /><path
             class="fil0"
             d="M4.68613 3.49231l0.576933 0 0 -0.113693 -0.576933 0 0 0.113693zm0.587228 0.106669l-0.597524 0c-0.0264094,0 -0.0504528,-0.0108307 -0.0678976,-0.0282677l-0.000208661 0c-0.017437,-0.017437 -0.0282677,-0.0415472 -0.0282677,-0.0681063l0 -0.177323 0 -0.0533346 0.0533346 0 0.683602 0 0.0533346 0 0 0.0533346 0 0.177323c0,0.0265591 -0.0108307,0.0506693 -0.0282677,0.0681063 -0.017437,0.017437 -0.0415472,0.0282677 -0.0681063,0.0282677z"
             id="_172697304" /><path
             class="fil0"
             d="M4.61693 3.27194l0.715319 0 0 -0.113693 -0.715319 0 0 0.113693zm0.725614 0.106669l-0.735909 0c-0.0264094,0 -0.0504528,-0.0108307 -0.0678976,-0.0282677l-0.000208661 -0.000208661c-0.017437,-0.0174449 -0.0282677,-0.0414882 -0.0282677,-0.0678976l0 -0.177323 0 -0.0533346 0.0533346 0 0.821988 0 0.0533346 0 0 0.0533346 0 0.177323c0,0.0264094 -0.0108307,0.0504528 -0.0282677,0.0678976l0 0.000208661c-0.017437,0.017437 -0.0415472,0.0282677 -0.0681063,0.0282677z"
             id="_172697232" /><g
             id="g24"><path
               class="fil0"
               d="M4.93399 3.78107c0,-0.0294528 -0.0238819,-0.0533346 -0.0533346,-0.0533346 -0.0294528,0 -0.0533346,0.0238819 -0.0533346,0.0533346l0 1.13594c0,0.0294528 0.0238819,0.0533346 0.0533346,0.0533346 0.0294528,0 0.0533346,-0.0238819 0.0533346,-0.0533346l0 -1.13594z"
               id="_172697112" /><path
               class="fil0"
               d="M5.12186 3.78107c0,-0.0294528 -0.0238819,-0.0533346 -0.0533346,-0.0533346 -0.0294528,0 -0.0533346,0.0238819 -0.0533346,0.0533346l0 1.13594c0,0.0294528 0.0238819,0.0533346 0.0533346,0.0533346 0.0294528,0 0.0533346,-0.0238819 0.0533346,-0.0533346l0 -1.13594z"
               id="_172697136" /></g></g></g><path
         class="fil0"
         d="M1.16902 2.66082l4.48863 0c0.0294528,0 0.0533346,0.0238819 0.0533346,0.0533346l0 0.390315c0,0.0294528 -0.0238819,0.0533346 -0.0533346,0.0533346l-4.48863 0c-0.0294528,0 -0.0533346,-0.0238819 -0.0533346,-0.0533346l0 -0.390315c0,-0.0294528 0.0238819,-0.0533346 0.0533346,-0.0533346zm4.43529 0.106669l-4.38196 0 0 0.283646 4.38196 0 0 -0.283646z"
         id="_172696872" /><path
         class="fil0"
         d="M5.75502 2.66082l-2.34169 -1.6864 -2.34169 1.6864 4.68337 0zm-2.31064 -1.795l2.50289 1.80249c0.0156063,0.00930315 0.0260669,0.0263543 0.0260669,0.0458425 0,0.0294528 -0.0238819,0.0533346 -0.0533346,0.0533346l-5.01297 0 -0.000362205 0 0 -3.93701e-006c-0.0165551,-1.1811e-005 -0.0328661,-0.00770472 -0.0432795,-0.0221654 -0.0172087,-0.0239016 -0.0117874,-0.0572362 0.0121142,-0.0744449l0.0311654 0.0432795 -0.0310394 -0.043126 2.50283 -1.80246c0.018252,-0.0157913 0.0455945,-0.0176299 0.0660354,-0.00291339l-0.000114173 0.000161417z"
         id="_172696800" /><path
         class="fil0"
         d="M3.01616 1.5976l0.379709 -0.128764 -3.14961e-005 -9.44882e-005c0.00579134,-0.00196457 0.011689,-0.00287402 0.0174764,-0.00283465 0.00719291,-5.90551e-005 0.014185,0.00134646 0.0206102,0.00398819l0.379803 0.128795 -0.0170827 0.0504173 0.017126 -0.0505079c0.0225551,0.00764567 0.0366417,0.0289134 0.0362087,0.0515197 1.1811e-005,0.0968858 0.00188189,0.166252 0.00342913,0.223717 0.00401181,0.149016 0.0061063,0.226941 -0.0275,0.29839 -0.0368307,0.0783189 -0.10765,0.130516 -0.256055,0.239894 -0.0392165,0.0289016 -0.0837598,0.0617323 -0.123157,0.0913819l0.000125984 0.000165354c-0.00997244,0.00750787 -0.0217283,0.0109843 -0.033311,0.0107047 -0.0136181,0.000393701 -0.0270984,-0.00444488 -0.0373858,-0.0137598 -0.0385039,-0.0289331 -0.0813307,-0.0605 -0.119307,-0.0884882 -0.148409,-0.109386 -0.219224,-0.161587 -0.256059,-0.239902 -0.0336063,-0.0714488 -0.0315079,-0.149374 -0.0275,-0.29839 0.00155118,-0.0576654 0.00342913,-0.127311 0.00342913,-0.224724 0,-0.0246575 0.0167402,-0.0454016 0.0394724,-0.0515079zm0.397173 -0.0222638l-0.330114 0.111941c-0.000496063,0.0697835 -0.00223228,0.134228 -0.00370866,0.189051 -0.00357087,0.13272 -0.00543701,0.202126 0.0175,0.250894 0.0251299,0.0534291 0.0889606,0.10048 0.22272,0.199067 0.0263898,0.0194488 0.0556614,0.0410236 0.0936024,0.0694094 0.0379724,-0.0284134 0.0671929,-0.0499409 0.0936063,-0.0694134 0.13376,-0.0985827 0.197591,-0.145626 0.222717,-0.199059 0.022937,-0.0487717 0.0210748,-0.118173 0.0175,-0.250894 -0.00147638,-0.0548228 -0.0032126,-0.119268 -0.00370866,-0.189055l-0.330114 -0.111941z"
         id="_172696728" /><path
         class="fil0"
         d="M2.81507 5.59316c0,0.0294528 0.0238819,0.0533346 0.0533346,0.0533346 0.0294528,0 0.0533346,-0.0238819 0.0533346,-0.0533346l0 -1.30581 0.983189 0 0 1.30581c0,0.0294528 0.0238819,0.0533346 0.0533346,0.0533346 0.0294528,0 0.0533346,-0.0238819 0.0533346,-0.0533346l0 -1.35914c0,-0.0294528 -0.0238819,-0.0533346 -0.0533346,-0.0533346l-1.08986 0c-0.0294528,0 -0.0533346,0.0238819 -0.0533346,0.0533346l0 1.35914z"
         id="_172696656" /><path
         class="fil0"
         d="M2.59478 3.85373l1.6371 0 0 -0.220287 -1.6371 0 0 0.220287zm1.69044 0.106669l-1.74377 0c-0.0294528,0 -0.0533346,-0.0238819 -0.0533346,-0.0533346l0 -0.326957c0,-0.0294528 0.0238819,-0.0533346 0.0533346,-0.0533346l1.74377 0c0.0294528,0 0.0533346,0.0238819 0.0533346,0.0533346l0 0.326957c0,0.0294528 -0.0238819,0.0533346 -0.0533346,0.0533346z"
         id="_172696560" /><path
         class="fil0"
         d="M1.17333 5.53983l4.48 0c0.0294528,0 0.0533346,0.0238819 0.0533346,0.0533346l0 0.324555c0,0.0294528 -0.0238819,0.0533346 -0.0533346,0.0533346l-4.48 0c-0.0294528,0 -0.0533346,-0.0238819 -0.0533346,-0.0533346l0 -0.324555c0,-0.0294528 0.0238819,-0.0533346 0.0533346,-0.0533346zm4.42667 0.106669l-4.37333 0 0 0.217886 4.37333 0 0 -0.217886z"
         id="_172696512" /></g><path
       class="fil1 str0"
       d="M2.81507 5.53983l0 -1.30581c0,-0.0294528 0.0238819,-0.0533346 0.0533346,-0.0533346l1.08986 0c0.0294528,0 0.0533346,0.0238819 0.0533346,0.0533346l0 1.30581 0.498665 0 0 -0.123988c0,-0.0264094 0.0108307,-0.0504528 0.0282677,-0.0678976l0.000208661 -0.000208661c0.0112205,-0.0112126 0.0251654,-0.0196929 0.0407165,-0.0243189l0 -0.127937c0,-0.0264094 0.0108307,-0.0504528 0.0282677,-0.0678976l0.000208661 -0.000208661c0.0124528,-0.0124488 0.0282677,-0.0215276 0.0459055,-0.0257047l0 -1.50526c-0.0176378,-0.00417717 -0.0334488,-0.0132598 -0.0459016,-0.0257047l-0.000208661 0c-0.017437,-0.017437 -0.0282677,-0.0415472 -0.0282677,-0.0681063l0 -0.127937c-0.0155512,-0.00462598 -0.0295,-0.0131102 -0.0407205,-0.0243228l-0.000208661 -0.000208661c-0.017437,-0.0174449 -0.0282677,-0.0414882 -0.0282677,-0.0678976l0 -0.124429 -2.19386 0 0 0.124429c0,0.0264094 -0.0108307,0.0504528 -0.0282677,0.0678976l-0.000208661 0.000208661c-0.0112165,0.0112126 -0.0251654,0.0196929 -0.0407126,0.0243189l0 0.127941c0,0.0265591 -0.0108307,0.0506693 -0.0282677,0.0681063l-0.000208661 0c-0.0124528,0.0124488 -0.0282677,0.0215276 -0.0459055,0.0257047l0 1.50526c0.0176378,0.00417717 0.0334488,0.0132598 0.0459016,0.0257047l0.000208661 0.000208661c0.017437,0.0174449 0.0282677,0.0414882 0.0282677,0.0678976l0 0.127937c0.0155512,0.00462598 0.0295,0.0131063 0.0407165,0.0243189l0.000208661 0.000208661c0.017437,0.0174449 0.0282677,0.0414882 0.0282677,0.0678976l0 0.123988 0.498669 0zm1.47015 -1.57943l-1.74377 0c-0.0294528,0 -0.0533346,-0.0238819 -0.0533346,-0.0533346l0 -0.326957c0,-0.0294528 0.0238819,-0.0533346 0.0533346,-0.0533346l1.74377 0c0.0294528,0 0.0533346,0.0238819 0.0533346,0.0533346l0 0.326957c0,0.0294528 -0.0238819,0.0533346 -0.0533346,0.0533346z"
       id="path37"
       style="fill:#0000ff;fill-opacity:1" /><polygon
       class="fil3 str0"
       points="5.60431,2.76749 1.22235,2.76749 1.22235,3.05114 5.60431,3.05114 "
       id="polygon41"
       style="fill:#0000ff;fill-opacity:1" /><path
       class="fil3 str0"
       d="M5.18868 3.59898l-0.428173 0 0 1.50013 0.428173 0 0 -1.50013zm-0.173484 0.182094c0,-0.0294528 0.0238819,-0.0533346 0.0533346,-0.0533346 0.0294528,0 0.0533346,0.0238819 0.0533346,0.0533346l0 1.13594c0,0.0294528 -0.0238819,0.0533346 -0.0533346,0.0533346 -0.0294528,0 -0.0533346,-0.0238819 -0.0533346,-0.0533346l0 -1.13594zm-0.134539 -0.0533346c0.0294528,0 0.0533346,0.0238819 0.0533346,0.0533346l0 1.13594c0,0.0294528 -0.0238819,0.0533346 -0.0533346,0.0533346 -0.0294528,0 -0.0533346,-0.0238819 -0.0533346,-0.0533346l0 -1.13594c0,-0.0294528 0.0238819,-0.0533346 0.0533346,-0.0533346z"
       id="path43"
       style="fill:#0000ff;fill-opacity:1" /><path
       class="fil3 str0"
       d="M1.89267 4.91702l0 -1.13594c0,-0.0294528 0.0238819,-0.0533346 0.0533346,-0.0533346 0.0294528,0 0.0533346,0.0238819 0.0533346,0.0533346l0 1.13594c0,0.0294528 -0.0238819,0.0533346 -0.0533346,0.0533346 -0.0294528,0 -0.0533346,-0.0238819 -0.0533346,-0.0533346zm0.173484 0.182091l0 -1.50013 -0.428173 0 0 1.50013 0.428173 0zm-0.254689 -1.31804l0 1.13594c0,0.0294528 -0.0238819,0.0533346 -0.0533346,0.0533346 -0.0294528,0 -0.0533346,-0.0238819 -0.0533346,-0.0533346l0 -1.13594c0,-0.0294528 0.0238819,-0.0533346 0.0533346,-0.0533346 0.0294528,0 0.0533346,0.0238819 0.0533346,0.0533346z"
       id="path45"
       style="fill:#0000ff;fill-opacity:1" /><polygon
       class="fil3 str0"
       points="1.58465,3.49231 2.11949,3.49231 2.14054,3.49231 2.14054,3.37861 1.56361,3.37861 1.56361,3.49231 "
       id="polygon47"
       style="fill:#0000ff;fill-opacity:1" /><polygon
       class="fil3 str0"
       points="1.51027,3.27194 2.19387,3.27194 2.20973,3.27194 2.20973,3.15825 1.49441,3.15825 1.49441,3.27194 "
       id="polygon49"
       style="fill:#0000ff;fill-opacity:1" /><polygon
       class="fil3 str0"
       points="4.68613,3.37861 4.68613,3.49231 4.70717,3.49231 5.24201,3.49231 5.26306,3.49231 5.26306,3.37861 "
       id="polygon51"
       style="fill:#0000ff;fill-opacity:1" /><polygon
       class="fil3 str0"
       points="4.63279,3.27194 5.31639,3.27194 5.33225,3.27194 5.33225,3.15825 4.61693,3.15825 4.61693,3.27194 "
       id="polygon53"
       style="fill:#0000ff;fill-opacity:1" /><polygon
       class="fil3 str0"
       points="2.11949,5.20578 1.58465,5.20578 1.5636,5.20578 1.5636,5.31947 2.14054,5.31947 2.14054,5.20578 "
       id="polygon55"
       style="fill:#0000ff;fill-opacity:1" /><polygon
       class="fil3 str0"
       points="2.19387,5.42614 1.51027,5.42614 1.49441,5.42614 1.49441,5.53983 2.20973,5.53983 2.20973,5.42614 "
       id="polygon57"
       style="fill:#0000ff;fill-opacity:1" /><polygon
       class="fil3 str0"
       points="4.68612,5.20578 4.68612,5.31947 5.26306,5.31947 5.26306,5.20578 5.24201,5.20578 4.70717,5.20578 "
       id="polygon59"
       style="fill:#0000ff;fill-opacity:1" /><polygon
       class="fil3 str0"
       points="5.31639,5.42614 4.63279,5.42614 4.61693,5.42614 4.61693,5.53983 5.33225,5.53983 5.33225,5.42614 "
       id="polygon61"
       style="fill:#0000ff;fill-opacity:1" /><polygon
       class="fil3 str0"
       points="4.51026,5.6465 3.95826,5.6465 2.8684,5.6465 2.3164,5.6465 2.26306,5.6465 1.44107,5.6465 1.38774,5.6465 1.22667,5.6465 1.22667,5.86439 5.6,5.86439 5.6,5.6465 5.43892,5.6465 5.38558,5.6465 4.56359,5.6465 "
       id="polygon63"
       style="fill:#0000ff;fill-opacity:1" /><polygon
       class="fil4 str0"
       points="3.90493,5.53983 3.90493,4.28735 2.92174,4.28735 2.92174,5.53983 "
       id="polygon65" /><polygon
       class="fil4 str0"
       points="2.59478,3.85373 4.23188,3.85373 4.23188,3.63344 2.59478,3.63344 "
       id="polygon67" /><path
       class="fil1 str0"
       d="M1.16902 2.66082l4.48863 0 0.0973701 0 -2.34169 -1.6864 -2.34169 1.6864 0.097378 0zm1.80424 -0.786992c0.00155118,-0.0576654 0.00342913,-0.127311 0.00342913,-0.224724 0,-0.0246575 0.0167402,-0.0454016 0.0394724,-0.0515079l0.379709 -0.128764 -3.14961e-005 -9.44882e-005c0.00579134,-0.00196457 0.011689,-0.00287402 0.0174764,-0.00283465 0.00719291,-5.90551e-005 0.014185,0.00134646 0.0206102,0.00398819l0.379803 0.128795 4.33071e-005 -9.05512e-005c0.0225551,0.00764567 0.0366417,0.0289134 0.0362087,0.0515197 1.1811e-005,0.0968858 0.00188189,0.166252 0.00342913,0.223717 0.00401181,0.149016 0.0061063,0.226941 -0.0275,0.29839 -0.0368307,0.0783189 -0.10765,0.130516 -0.256055,0.239894 -0.0392165,0.0289016 -0.0837598,0.0617323 -0.123157,0.0913819l0.000125984 0.000165354c-0.00997244,0.00750787 -0.0217283,0.0109843 -0.033311,0.0107047 -0.0136181,0.000393701 -0.0270984,-0.00444488 -0.0373858,-0.0137598 -0.0385039,-0.0289331 -0.0813307,-0.0605 -0.119307,-0.0884882 -0.148409,-0.109386 -0.219224,-0.161587 -0.256059,-0.239902 -0.0336063,-0.0714488 -0.0315079,-0.149374 -0.0275,-0.29839z"
       id="path69"
       style="fill:#0000ff;fill-opacity:1" /></g><rect
     class="fil5"
     height="6.82666"
     width="6.82666"
     id="rect72" /></svg>